<svg width="639" height="128" viewBox="0 0 639 128" fill="none" xmlns="http://www.w3.org/2000/svg">
<g clip-path="url(#clip0_613_42)">
<path d="M101.523 115L0 105.585V0H639V115L571.841 105.585L471 115L418.635 105.585L324.875 115L282.5 111.5H212.5L159.353 105.585L101.523 115Z" fill="#0047FF"/>
<path d="M182 106.436C228.5 106.436 228.5 116.436 275 116.436" stroke="#0047FF" stroke-width="15"/>
<path d="M275 116.436C320 116.436 320 106.436 365 106.436" stroke="#0047FF" stroke-width="15"/>
<path d="M365 106.436C411 106.436 411 116.436 457 116.436" stroke="#0047FF" stroke-width="15"/>
<path d="M457 116.436C502 116.436 502 106.436 547 106.436" stroke="#0047FF" stroke-width="15"/>
<path d="M0 106.436C46 106.436 46 116.436 92 116.436" stroke="#0047FF" stroke-width="15"/>
<path d="M92 116.436C137 116.436 137 106.436 182 106.436" stroke="#0047FF" stroke-width="15"/>
<path d="M547 106.436C593 106.436 593 116.436 639 116.436" stroke="#0047FF" stroke-width="15"/>
<path d="M19.7832 90.3672C19.5384 90.1224 19.416 89.6022 19.416 88.8066C19.416 87.5827 19.5384 86.9707 19.7832 86.9707C20.2728 86.9707 20.9766 86.8789 21.8945 86.6953C22.8125 86.5117 23.6693 86.2669 24.4648 85.9609C25.2604 85.5938 25.7194 85.2572 25.8418 84.9512C26.209 83.5436 26.3926 80.8509 26.3926 76.873V42.1738C26.3926 38.7467 26.209 36.36 25.8418 35.0137C25.7194 34.6465 25.2298 34.2793 24.373 33.9121C23.5775 33.4837 22.7207 33.1471 21.8027 32.9023C20.8848 32.5964 20.181 32.4434 19.6914 32.4434C19.4466 32.4434 19.3242 31.8926 19.3242 30.791C19.3242 29.8118 19.416 29.2305 19.5996 29.0469C22.3535 29.1693 24.8626 29.2917 27.127 29.4141C29.3913 29.4753 31.3802 29.5059 33.0938 29.5059C37.0716 29.5059 42.2122 29.4141 48.5156 29.2305C51.6979 29.1693 54.4518 29.1387 56.7773 29.1387C59.1641 29.0775 61.153 29.0469 62.7441 29.0469C62.8053 29.3529 63.0501 30.638 63.4785 32.9023C63.9069 35.1667 64.5495 38.4102 65.4062 42.6328C65.1003 42.9388 64.3965 43.0918 63.2949 43.0918C62.6217 43.0918 62.1934 42.8776 62.0098 42.4492C61.2754 40.8581 60.1738 39.4505 58.7051 38.2266C57.2975 36.9414 55.737 35.9316 54.0234 35.1973C52.3711 34.4017 50.7493 34.0039 49.1582 34.0039H45.6699C41.7533 34.0039 39.7643 34.4017 39.7031 35.1973C39.5807 35.9316 39.4583 36.9108 39.3359 38.1348C39.2747 39.2975 39.2441 40.7051 39.2441 42.3574V56.4941C39.2441 56.8613 40.5599 57.0449 43.1914 57.0449H48.0566C51.9121 57.0449 53.9928 56.9225 54.2988 56.6777C54.6048 56.3717 54.8496 55.4844 55.0332 54.0156C55.1556 53.0365 55.3392 52.1491 55.584 51.3535C55.6452 50.9251 56.1042 50.7109 56.9609 50.7109C58.0013 50.7109 58.6745 50.8639 58.9805 51.1699V68.5195C58.7357 68.7643 58.0931 68.8867 57.0527 68.8867C56.2572 68.8867 55.7676 68.6419 55.584 68.1523C54.8496 65.7656 54.36 64.2969 54.1152 63.7461C53.8704 63.3177 53.6868 63.1341 53.5645 63.1953C53.5033 63.1953 53.3197 63.0729 53.0137 62.8281C52.1569 62.3385 49.7702 62.0938 45.8535 62.0938C41.4473 62.0938 39.2441 62.3691 39.2441 62.9199V77.0566C39.2441 80.3001 39.4583 82.8092 39.8867 84.584C40.0091 85.0736 40.5293 85.502 41.4473 85.8691C42.3652 86.2363 43.375 86.5117 44.4766 86.6953C45.5781 86.8789 46.4349 86.9707 47.0469 86.9707C47.2917 86.9707 47.4141 87.5521 47.4141 88.7148C47.4141 89.3268 47.3529 89.8776 47.2305 90.3672C39.8867 90 35.2051 89.8164 33.1855 89.8164L19.7832 90.3672ZM70.4551 90.3672C70.2103 90.1224 70.0879 89.4798 70.0879 88.4395C70.0879 87.4603 70.2103 86.9707 70.4551 86.9707C70.9447 86.9707 71.6484 86.8483 72.5664 86.6035C73.4844 86.2975 74.3411 85.9609 75.1367 85.5938C75.9323 85.2266 76.3607 84.9206 76.4219 84.6758C76.8503 82.9622 77.0645 80.6367 77.0645 77.6992V41.2559C77.0645 39.8483 77.0033 38.5938 76.8809 37.4922C76.8197 36.3906 76.7279 35.4421 76.6055 34.6465C76.3607 33.6673 74.7695 33.1777 71.832 33.1777H71.0059C70.6387 33.1777 70.4551 32.5658 70.4551 31.3418C70.4551 30.3014 70.6387 29.7812 71.0059 29.7812C74.5553 29.4753 77.8906 28.9551 81.0117 28.2207C84.194 27.4863 86.4583 26.9049 87.8047 26.4766L88.7227 26.2012H88.9062C89.151 26.2012 89.3958 26.3848 89.6406 26.752C89.8854 27.1191 90.0384 27.4557 90.0996 27.7617C89.4264 30.638 89.0898 33.7285 89.0898 37.0332L88.998 76.3223C88.998 80.3613 89.2122 83.1458 89.6406 84.6758C89.763 84.9206 90.222 85.2266 91.0176 85.5938C91.8132 85.9609 92.6393 86.2975 93.4961 86.6035C94.4141 86.8483 95.0566 86.9707 95.4238 86.9707C95.5462 86.9707 95.638 87.2155 95.6992 87.7051C95.7604 88.1947 95.791 88.7148 95.791 89.2656C95.791 89.8164 95.7298 90.1836 95.6074 90.3672C95.2402 90.3672 94.5365 90.306 93.4961 90.1836C92.4557 90.1224 91.2318 90.0612 89.8242 90C88.4779 89.8776 87.1927 89.7858 85.9688 89.7246C84.7448 89.6634 83.7656 89.6328 83.0312 89.6328C82.2969 89.6328 81.2871 89.6634 80.002 89.7246C78.778 89.7858 77.4928 89.8776 76.1465 90C74.8001 90.0612 73.6068 90.1224 72.5664 90.1836C71.526 90.306 70.8223 90.3672 70.4551 90.3672ZM122.32 90.6426C118.342 90.6426 114.701 89.7246 111.396 87.8887C108.153 85.9915 105.552 83.4824 103.594 80.3613C101.697 77.179 100.748 73.6602 100.748 69.8047C100.748 65.888 101.697 62.3691 103.594 59.248C105.552 56.127 108.153 53.6484 111.396 51.8125C114.701 49.9154 118.342 48.9668 122.32 48.9668C126.359 48.9668 130.001 49.9154 133.244 51.8125C136.488 53.6484 139.058 56.127 140.955 59.248C142.913 62.3691 143.893 65.888 143.893 69.8047C143.893 73.6602 142.944 77.179 141.047 80.3613C139.15 83.4824 136.549 85.9915 133.244 87.8887C130.001 89.7246 126.359 90.6426 122.32 90.6426ZM123.238 85.5938C124.952 85.5938 126.359 85.0124 127.461 83.8496C128.562 82.6868 129.358 81.1569 129.848 79.2598C130.398 77.3014 130.674 75.2207 130.674 73.0176C130.674 60.3496 127.461 54.0156 121.035 54.0156C119.322 54.0156 117.914 54.6276 116.812 55.8516C115.772 57.0755 115.007 58.6667 114.518 60.625C114.028 62.5833 113.783 64.6947 113.783 66.959C113.783 79.3822 116.935 85.5938 123.238 85.5938ZM170.33 90.6426C166.352 90.6426 162.711 89.7246 159.406 87.8887C156.163 85.9915 153.562 83.4824 151.604 80.3613C149.706 77.179 148.758 73.6602 148.758 69.8047C148.758 65.888 149.706 62.3691 151.604 59.248C153.562 56.127 156.163 53.6484 159.406 51.8125C162.711 49.9154 166.352 48.9668 170.33 48.9668C174.369 48.9668 178.01 49.9154 181.254 51.8125C184.497 53.6484 187.068 56.127 188.965 59.248C190.923 62.3691 191.902 65.888 191.902 69.8047C191.902 73.6602 190.954 77.179 189.057 80.3613C187.16 83.4824 184.559 85.9915 181.254 87.8887C178.01 89.7246 174.369 90.6426 170.33 90.6426ZM171.248 85.5938C172.962 85.5938 174.369 85.0124 175.471 83.8496C176.572 82.6868 177.368 81.1569 177.857 79.2598C178.408 77.3014 178.684 75.2207 178.684 73.0176C178.684 60.3496 175.471 54.0156 169.045 54.0156C167.331 54.0156 165.924 54.6276 164.822 55.8516C163.782 57.0755 163.017 58.6667 162.527 60.625C162.038 62.5833 161.793 64.6947 161.793 66.959C161.793 79.3822 164.945 85.5938 171.248 85.5938ZM215.127 90.5508C211.822 90.5508 208.701 89.7246 205.764 88.0723C202.887 86.4199 200.531 84.0944 198.695 81.0957C196.921 78.097 196.033 74.5781 196.033 70.5391C196.033 66.4388 196.982 62.7669 198.879 59.5234C200.837 56.2799 203.469 53.7096 206.773 51.8125C210.139 49.9154 213.903 48.9668 218.064 48.9668C220.635 48.9668 222.777 49.2422 224.49 49.793C224.674 49.793 224.766 49.3646 224.766 48.5078V41.2559C224.766 38.6855 224.582 36.4824 224.215 34.6465C223.97 33.6673 222.379 33.1777 219.441 33.1777H218.615C218.248 33.1777 218.064 32.5658 218.064 31.3418C218.064 30.3014 218.248 29.7812 218.615 29.7812C222.165 29.4753 225.5 28.9551 228.621 28.2207C231.803 27.4863 234.068 26.9049 235.414 26.4766L236.332 26.2012H236.516C236.76 26.2012 237.005 26.3848 237.25 26.752C237.495 27.1191 237.648 27.4557 237.709 27.7617C237.036 30.638 236.699 33.7285 236.699 37.0332V76.5059C236.699 77.8522 236.76 79.321 236.883 80.9121C237.005 82.4421 237.281 83.4212 237.709 83.8496C238.199 84.2168 238.749 84.431 239.361 84.4922C239.973 84.4922 240.769 84.5534 241.748 84.6758L242.666 84.7676C242.85 84.8288 242.941 85.196 242.941 85.8691C242.941 87.3991 242.758 88.1641 242.391 88.1641C240.861 88.2253 239.086 88.4089 237.066 88.7148C235.108 89.0208 233.18 89.3268 231.283 89.6328C229.386 89.9388 227.856 90.1836 226.693 90.3672L225.316 90.5508C224.949 90.612 224.766 90.0918 224.766 88.9902V87.0625C224.766 86.5729 224.643 86.4505 224.398 86.6953C221.828 89.2656 218.738 90.5508 215.127 90.5508ZM217.514 84.9512C219.594 84.9512 221.308 84.3698 222.654 83.207C224.062 81.9831 224.766 80.5143 224.766 78.8008V62.0938C224.766 61.3594 224.704 60.6556 224.582 59.9824C224.46 59.3092 224.184 58.4525 223.756 57.4121C223.327 56.3717 222.562 55.5456 221.461 54.9336C220.421 54.2604 219.105 53.9238 217.514 53.9238C214.637 53.9238 212.526 55.0866 211.18 57.4121C209.895 59.6764 209.252 63.3177 209.252 68.3359C209.252 79.4128 212.006 84.9512 217.514 84.9512ZM303.803 90.6426C300.804 90.6426 298.05 90.3672 295.541 89.8164C293.093 89.2044 291.135 88.5312 289.666 87.7969C288.136 87.0625 286.637 85.9609 285.168 84.4922C284.434 83.7578 283.76 83.054 283.148 82.3809C282.536 81.7077 281.863 80.8815 281.129 79.9023C280.456 78.862 279.568 77.5156 278.467 75.8633C277.365 74.1497 275.927 71.8854 274.152 69.0703C271.766 65.4596 270.174 63.5013 269.379 63.1953C269.257 63.1341 268.92 63.1035 268.369 63.1035C267.818 63.1035 267.543 63.5931 267.543 64.5723V77.0566C267.543 80.3001 267.757 82.8092 268.186 84.584C268.308 85.0736 268.828 85.502 269.746 85.8691C270.664 86.2363 271.674 86.5117 272.775 86.6953C273.877 86.8789 274.734 86.9707 275.346 86.9707C275.59 86.9707 275.713 87.5521 275.713 88.7148C275.713 89.3268 275.652 89.8776 275.529 90.3672C271.857 90.1836 268.859 90.0306 266.533 89.9082C264.208 89.7858 262.525 89.7552 261.484 89.8164L248.082 90.3672C247.837 90.1224 247.715 89.6022 247.715 88.8066C247.715 87.5827 247.837 86.9707 248.082 86.9707C248.572 86.9707 249.275 86.8789 250.193 86.6953C251.111 86.5117 251.968 86.2669 252.764 85.9609C253.559 85.5938 254.018 85.2572 254.141 84.9512C254.508 83.5436 254.691 80.8509 254.691 76.873V42.1738C254.691 38.7467 254.508 36.36 254.141 35.0137C254.018 34.6465 253.529 34.2793 252.672 33.9121C251.876 33.4837 251.02 33.1471 250.102 32.9023C249.184 32.5964 248.48 32.4434 247.99 32.4434C247.745 32.4434 247.623 31.8926 247.623 30.791C247.623 29.8118 247.715 29.2305 247.898 29.0469C250.714 29.1693 253.223 29.2917 255.426 29.4141C257.69 29.4753 259.679 29.5059 261.393 29.5059C264.33 29.4447 266.625 29.4141 268.277 29.4141C269.93 29.4141 271.184 29.4141 272.041 29.4141C272.898 29.4141 273.632 29.4141 274.244 29.4141C276.692 29.4141 279.14 29.7201 281.588 30.332C284.097 30.944 286.392 31.8926 288.473 33.1777C290.553 34.4017 292.206 35.9928 293.43 37.9512C294.715 39.8483 295.357 42.1432 295.357 44.8359C295.357 47.5286 294.807 50.0378 293.705 52.3633C292.604 54.6888 291.165 56.6471 289.391 58.2383C287.677 59.8294 285.902 60.931 284.066 61.543C283.577 61.7266 283.485 62.0632 283.791 62.5527C285.137 64.8171 286.178 66.5306 286.912 67.6934C287.646 68.8561 288.258 69.8047 288.748 70.5391C289.299 71.2122 289.941 72.069 290.676 73.1094C291.41 74.0885 292.451 75.5879 293.797 77.6074C294.837 79.0762 296.061 80.5449 297.469 82.0137C298.938 83.4212 300.498 84.6146 302.15 85.5938C303.864 86.5117 305.486 86.9707 307.016 86.9707C307.26 87.2155 307.383 87.7663 307.383 88.623C307.383 89.3574 307.26 89.9694 307.016 90.459C306.587 90.5202 306.098 90.5508 305.547 90.5508C305.057 90.612 304.476 90.6426 303.803 90.6426ZM271.398 58.0547H273.877C276.264 58.0547 278.1 57.0143 279.385 54.9336C280.731 52.8529 281.404 50.099 281.404 46.6719C281.404 38.5326 278.559 34.4629 272.867 34.4629C270.725 34.4629 269.318 34.7077 268.645 35.1973C267.91 35.748 267.543 38.7467 267.543 44.1934V54.1074C267.543 55.821 267.88 56.9225 268.553 57.4121C269.287 57.8405 270.236 58.0547 271.398 58.0547ZM329.873 90.6426C326.14 90.6426 322.682 89.694 319.5 87.7969C316.379 85.8997 313.87 83.36 311.973 80.1777C310.137 76.9954 309.219 73.5072 309.219 69.7129C309.219 65.7962 310.045 62.2773 311.697 59.1562C313.411 56.0352 315.767 53.5566 318.766 51.7207C321.764 49.8848 325.222 48.9668 329.139 48.9668C332.994 48.9668 336.268 49.8848 338.961 51.7207C341.715 53.4954 343.796 55.7292 345.203 58.4219C346.672 61.0534 347.406 63.7155 347.406 66.4082C347.406 67.8158 347.1 68.7337 346.488 69.1621C345.938 69.5905 344.805 69.8047 343.092 69.8047H322.346C321.979 69.8047 321.795 70.0189 321.795 70.4473C321.795 72.6504 322.193 74.7311 322.988 76.6895C323.845 78.6478 325.069 80.2389 326.66 81.4629C328.312 82.6868 330.301 83.2988 332.627 83.2988C334.708 83.2988 336.635 82.9928 338.41 82.3809C339.634 82.0137 340.583 81.6771 341.256 81.3711C341.929 81.0651 342.541 80.7285 343.092 80.3613C343.704 79.9329 344.408 79.4128 345.203 78.8008C345.754 79.0456 346.029 79.627 346.029 80.5449C346.029 81.3405 345.907 81.9525 345.662 82.3809C345.295 83.36 344.316 84.4922 342.725 85.7773C341.195 87.0625 339.298 88.1947 337.033 89.1738C334.83 90.153 332.443 90.6426 329.873 90.6426ZM322.438 64.7559H334.096C334.952 64.7559 335.381 64.1745 335.381 63.0117C335.381 60.6862 334.738 58.6055 333.453 56.7695C332.229 54.9336 330.638 54.0156 328.68 54.0156C326.905 54.0156 325.497 54.6582 324.457 55.9434C323.478 57.1673 322.774 58.5443 322.346 60.0742C321.979 61.6042 321.795 62.8587 321.795 63.8379C321.795 64.4499 322.009 64.7559 322.438 64.7559ZM363.746 90.6426C360.38 90.6426 357.688 89.7246 355.668 87.8887C353.71 85.9915 352.73 83.6354 352.73 80.8203C352.73 78.4336 353.465 76.3529 354.934 74.5781C356.464 72.8034 358.361 71.3958 360.625 70.3555C361.482 69.9883 362.277 69.6823 363.012 69.4375C363.746 69.1315 364.419 68.8561 365.031 68.6113C367.357 67.877 369.223 67.3568 370.631 67.0508C372.038 66.6836 373.079 66.3776 373.752 66.1328C374.303 65.9492 374.578 65.4902 374.578 64.7559V61.4512C374.578 56.4329 373.048 53.9238 369.988 53.9238C366.439 53.9238 364.664 55.974 364.664 60.0742C364.664 61.4206 364.113 62.4303 363.012 63.1035C361.91 63.7155 360.686 64.0215 359.34 64.0215C356.525 64.0215 354.597 63.1035 353.557 61.2676C353.557 59.6764 354.107 58.1465 355.209 56.6777C356.372 55.209 357.871 53.8932 359.707 52.7305C361.604 51.5065 363.715 50.5579 366.041 49.8848C368.428 49.1504 370.814 48.7832 373.201 48.7832C377.485 48.7832 380.759 49.9766 383.023 52.3633C385.349 54.6888 386.512 58.9421 386.512 65.123V79.9941C386.512 82.0749 387.246 83.1152 388.715 83.1152C389.816 83.1152 390.857 82.7174 391.836 81.9219C392.264 82.1667 392.479 82.6257 392.479 83.2988C392.479 84.89 392.264 86.0221 391.836 86.6953C390.979 87.4909 389.572 88.3477 387.613 89.2656C385.716 90.1224 383.911 90.5508 382.197 90.5508C380.729 90.5508 379.321 90.1224 377.975 89.2656C376.628 88.3477 375.741 87.3073 375.312 86.1445C375.251 86.1445 374.915 86.3587 374.303 86.7871C373.691 87.2155 373.232 87.5521 372.926 87.7969C371.702 88.5924 370.294 89.2656 368.703 89.8164C367.112 90.3672 365.46 90.6426 363.746 90.6426ZM369.529 84.0332C371.12 84.0332 372.344 83.666 373.201 82.9316C374.119 82.1361 374.578 81.1875 374.578 80.0859V70.8145L369.805 72.4668C368.52 72.8952 367.326 73.5378 366.225 74.3945C365.184 75.2513 364.664 76.3835 364.664 77.791C364.664 79.9941 365.123 81.5853 366.041 82.5645C367.02 83.5436 368.183 84.0332 369.529 84.0332ZM415.52 90.5508C412.215 90.5508 409.094 89.7246 406.156 88.0723C403.28 86.4199 400.924 84.0944 399.088 81.0957C397.313 78.097 396.426 74.5781 396.426 70.5391C396.426 66.4388 397.374 62.7669 399.271 59.5234C401.23 56.2799 403.861 53.7096 407.166 51.8125C410.532 49.9154 414.296 48.9668 418.457 48.9668C421.027 48.9668 423.169 49.2422 424.883 49.793C425.066 49.793 425.158 49.3646 425.158 48.5078V41.2559C425.158 38.6855 424.975 36.4824 424.607 34.6465C424.363 33.6673 422.771 33.1777 419.834 33.1777H419.008C418.641 33.1777 418.457 32.5658 418.457 31.3418C418.457 30.3014 418.641 29.7812 419.008 29.7812C422.557 29.4753 425.893 28.9551 429.014 28.2207C432.196 27.4863 434.46 26.9049 435.807 26.4766L436.725 26.2012H436.908C437.153 26.2012 437.398 26.3848 437.643 26.752C437.887 27.1191 438.04 27.4557 438.102 27.7617C437.428 30.638 437.092 33.7285 437.092 37.0332V76.5059C437.092 77.8522 437.153 79.321 437.275 80.9121C437.398 82.4421 437.673 83.4212 438.102 83.8496C438.591 84.2168 439.142 84.431 439.754 84.4922C440.366 84.4922 441.161 84.5534 442.141 84.6758L443.059 84.7676C443.242 84.8288 443.334 85.196 443.334 85.8691C443.334 87.3991 443.15 88.1641 442.783 88.1641C441.253 88.2253 439.479 88.4089 437.459 88.7148C435.501 89.0208 433.573 89.3268 431.676 89.6328C429.779 89.9388 428.249 90.1836 427.086 90.3672L425.709 90.5508C425.342 90.612 425.158 90.0918 425.158 88.9902V87.0625C425.158 86.5729 425.036 86.4505 424.791 86.6953C422.221 89.2656 419.13 90.5508 415.52 90.5508ZM417.906 84.9512C419.987 84.9512 421.701 84.3698 423.047 83.207C424.454 81.9831 425.158 80.5143 425.158 78.8008V62.0938C425.158 61.3594 425.097 60.6556 424.975 59.9824C424.852 59.3092 424.577 58.4525 424.148 57.4121C423.72 56.3717 422.955 55.5456 421.854 54.9336C420.813 54.2604 419.497 53.9238 417.906 53.9238C415.03 53.9238 412.919 55.0866 411.572 57.4121C410.287 59.6764 409.645 63.3177 409.645 68.3359C409.645 79.4128 412.398 84.9512 417.906 84.9512ZM452.605 110.012C450.77 110.012 449.27 109.522 448.107 108.543C447.006 107.564 446.455 106.432 446.455 105.146C446.455 103.311 447.159 101.872 448.566 100.832C456.4 100.832 461.449 98.4453 463.713 93.6719L466.559 87.6133L452.422 56.2188C451.81 54.8724 450.861 53.9544 449.576 53.4648C448.352 52.9753 447.281 52.7305 446.363 52.7305C446.118 52.7305 445.996 52.2715 445.996 51.3535C445.996 50.1296 446.057 49.4564 446.18 49.334C446.424 49.334 447.006 49.3646 447.924 49.4258C448.903 49.487 450.249 49.5788 451.963 49.7012C453.676 49.8236 455.115 49.9154 456.277 49.9766C457.501 50.0378 458.48 50.0684 459.215 50.0684C460.133 50.0684 461.449 50.0072 463.162 49.8848C464.876 49.7624 466.528 49.64 468.119 49.5176C469.771 49.3952 470.812 49.334 471.24 49.334C471.424 49.8848 471.516 50.5273 471.516 51.2617C471.516 52.2409 471.393 52.7305 471.148 52.7305C470.659 52.7305 469.955 52.8529 469.037 53.0977C468.119 53.3424 467.293 53.6484 466.559 54.0156C465.824 54.3216 465.457 54.6888 465.457 55.1172C465.579 56.0352 466.222 58.0241 467.385 61.084C468.609 64.1439 470.383 68.3971 472.709 73.8438C474.79 69.3151 476.381 65.8268 477.482 63.3789C478.645 60.8698 479.318 59.401 479.502 58.9727C479.869 58.1159 480.053 57.1979 480.053 56.2188C480.053 55.4232 479.471 54.6582 478.309 53.9238C477.146 53.1283 475.555 52.7305 473.535 52.7305C473.29 52.7305 473.168 52.1797 473.168 51.0781C473.168 50.6497 473.168 50.3132 473.168 50.0684C473.229 49.7624 473.29 49.5176 473.352 49.334C473.841 49.334 474.851 49.3952 476.381 49.5176C477.972 49.64 479.624 49.7624 481.338 49.8848C483.051 50.0072 484.398 50.0684 485.377 50.0684C486.05 50.0684 486.815 50.0378 487.672 49.9766C488.529 49.8542 489.477 49.7624 490.518 49.7012L495.199 49.334C495.444 49.7624 495.566 50.2826 495.566 50.8945C495.566 52.1185 495.444 52.7305 495.199 52.7305C494.587 52.7305 493.73 52.8835 492.629 53.1895C491.589 53.4342 490.548 53.832 489.508 54.3828C488.529 54.8724 487.855 55.5456 487.488 56.4023L470.414 93.3965C465.273 104.473 459.337 110.012 452.605 110.012ZM505.205 91.0098C502.941 91.0098 501.227 90.2754 500.064 88.8066C498.902 87.3379 498.32 85.7467 498.32 84.0332C498.32 82.3197 498.871 80.7591 499.973 79.3516C501.074 77.944 502.757 77.2402 505.021 77.2402C506.857 77.2402 508.418 77.9134 509.703 79.2598C511.049 80.5449 511.723 82.1055 511.723 83.9414C511.723 85.8385 511.08 87.4909 509.795 88.8984C508.571 90.306 507.041 91.0098 505.205 91.0098ZM535.039 90.5508C531.734 90.5508 528.613 89.7246 525.676 88.0723C522.799 86.4199 520.443 84.0944 518.607 81.0957C516.833 78.097 515.945 74.5781 515.945 70.5391C515.945 66.4388 516.894 62.7669 518.791 59.5234C520.749 56.2799 523.381 53.7096 526.686 51.8125C530.051 49.9154 533.815 48.9668 537.977 48.9668C540.547 48.9668 542.689 49.2422 544.402 49.793C544.586 49.793 544.678 49.3646 544.678 48.5078V41.2559C544.678 38.6855 544.494 36.4824 544.127 34.6465C543.882 33.6673 542.291 33.1777 539.354 33.1777H538.527C538.16 33.1777 537.977 32.5658 537.977 31.3418C537.977 30.3014 538.16 29.7812 538.527 29.7812C542.077 29.4753 545.412 28.9551 548.533 28.2207C551.715 27.4863 553.98 26.9049 555.326 26.4766L556.244 26.2012H556.428C556.673 26.2012 556.917 26.3848 557.162 26.752C557.407 27.1191 557.56 27.4557 557.621 27.7617C556.948 30.638 556.611 33.7285 556.611 37.0332V76.5059C556.611 77.8522 556.673 79.321 556.795 80.9121C556.917 82.4421 557.193 83.4212 557.621 83.8496C558.111 84.2168 558.661 84.431 559.273 84.4922C559.885 84.4922 560.681 84.5534 561.66 84.6758L562.578 84.7676C562.762 84.8288 562.854 85.196 562.854 85.8691C562.854 87.3991 562.67 88.1641 562.303 88.1641C560.773 88.2253 558.998 88.4089 556.979 88.7148C555.02 89.0208 553.092 89.3268 551.195 89.6328C549.298 89.9388 547.768 90.1836 546.605 90.3672L545.229 90.5508C544.861 90.612 544.678 90.0918 544.678 88.9902V87.0625C544.678 86.5729 544.555 86.4505 544.311 86.6953C541.74 89.2656 538.65 90.5508 535.039 90.5508ZM537.426 84.9512C539.507 84.9512 541.22 84.3698 542.566 83.207C543.974 81.9831 544.678 80.5143 544.678 78.8008V62.0938C544.678 61.3594 544.617 60.6556 544.494 59.9824C544.372 59.3092 544.096 58.4525 543.668 57.4121C543.24 56.3717 542.475 55.5456 541.373 54.9336C540.333 54.2604 539.017 53.9238 537.426 53.9238C534.549 53.9238 532.438 55.0866 531.092 57.4121C529.807 59.6764 529.164 63.3177 529.164 68.3359C529.164 79.4128 531.918 84.9512 537.426 84.9512ZM567.902 90.3672C567.658 90.1224 567.535 89.4798 567.535 88.4395C567.535 87.4603 567.658 86.9707 567.902 86.9707C568.392 86.9707 569.096 86.8483 570.014 86.6035C570.932 86.2975 571.788 85.9609 572.584 85.5938C573.38 85.2266 573.808 84.9206 573.869 84.6758C574.298 82.9622 574.512 80.6367 574.512 77.6992V41.2559C574.512 39.8483 574.451 38.5938 574.328 37.4922C574.267 36.3906 574.175 35.4421 574.053 34.6465C573.808 33.6673 572.217 33.1777 569.279 33.1777H568.453C568.086 33.1777 567.902 32.5658 567.902 31.3418C567.902 30.3014 568.086 29.7812 568.453 29.7812C570.84 29.5365 573.135 29.1999 575.338 28.7715C577.602 28.3431 579.591 27.9147 581.305 27.4863C583.079 26.9967 584.395 26.6602 585.252 26.4766L586.354 26.2012C586.598 26.14 586.843 26.3236 587.088 26.752C587.333 27.1191 587.486 27.4557 587.547 27.7617C586.812 30.5156 586.445 33.6061 586.445 37.0332V66.2246C588.098 65.735 589.138 65.3372 589.566 65.0312C590.79 63.9909 592.076 62.8893 593.422 61.7266C594.829 60.5638 596.115 59.4622 597.277 58.4219C598.318 57.5039 599.083 56.7695 599.572 56.2188C600.123 55.6068 600.398 54.9948 600.398 54.3828C600.398 53.526 599.878 53.0977 598.838 53.0977C597.798 53.0365 596.91 52.9447 596.176 52.8223C596.115 52.5775 596.053 52.3021 595.992 51.9961C595.992 51.6901 595.992 51.3229 595.992 50.8945C595.992 50.0378 596.115 49.5788 596.359 49.5176L606.824 49.6094C608.599 49.6094 610.282 49.6094 611.873 49.6094C613.525 49.5482 615.025 49.487 616.371 49.4258C616.616 49.487 616.738 49.8236 616.738 50.4355C616.799 50.9863 616.799 51.5371 616.738 52.0879C616.677 52.5775 616.585 52.8223 616.463 52.8223C614.627 52.8223 612.485 53.526 610.037 54.9336C605.814 57.3815 601.622 60.7168 597.461 64.9395C602.234 70.1413 606.09 74.5169 609.027 78.0664C612.026 81.5547 614.107 83.7272 615.27 84.584C616.065 85.2572 617.105 85.8385 618.391 86.3281C619.676 86.7565 620.594 86.9707 621.145 86.9707C621.451 86.9707 621.604 87.5521 621.604 88.7148C621.604 89.388 621.542 89.9082 621.42 90.2754L609.854 89.7246C609.119 89.6634 608.171 89.694 607.008 89.8164C605.845 89.8776 604.468 89.9694 602.877 90.0918L597.645 90.3672C597.4 90.1224 597.277 89.4798 597.277 88.4395C597.277 87.4603 597.4 86.9707 597.645 86.9707C598.257 86.9707 598.96 86.8483 599.756 86.6035C600.551 86.3587 600.949 86.0833 600.949 85.7773C600.949 85.6549 600.919 85.5632 600.857 85.502L587.455 70.1719L586.445 70.4473V76.3223C586.445 80.3613 586.66 83.1458 587.088 84.6758C587.21 84.9206 587.669 85.2266 588.465 85.5938C589.26 85.9609 590.087 86.2975 590.943 86.6035C591.861 86.8483 592.504 86.9707 592.871 86.9707C592.993 86.9707 593.085 87.2155 593.146 87.7051C593.208 88.1947 593.238 88.7148 593.238 89.2656C593.238 89.8164 593.177 90.1836 593.055 90.3672C592.688 90.3672 591.984 90.306 590.943 90.1836C589.903 90.1224 588.679 90.0612 587.271 90C585.925 89.8776 584.64 89.7858 583.416 89.7246C582.192 89.6634 581.213 89.6328 580.479 89.6328C579.744 89.6328 578.734 89.6634 577.449 89.7246C576.225 89.7858 574.94 89.8776 573.594 90C572.247 90.0612 571.054 90.1224 570.014 90.1836C568.973 90.306 568.27 90.3672 567.902 90.3672Z" fill="white"/>
</g>
<defs>
<clipPath id="clip0_613_42">
<rect width="639" height="128" fill="white"/>
</clipPath>
</defs>
</svg>
